<?xml version="1.0" encoding="UTF-8" standalone="no"?>
<!DOCTYPE svg PUBLIC "-//W3C//DTD SVG 1.0//EN" "http://www.w3.org/TR/2001/PR-SVG-20010719/DTD/svg10.dtd">
<svg width="54cm" height="38cm" viewBox="-988 97 1068 753" xmlns="http://www.w3.org/2000/svg" xmlns:xlink="http://www.w3.org/1999/xlink">
  <g>
    <rect style="fill: #ffffff" x="-661.134" y="373.768" width="110.1" height="28"/>
    <rect style="fill: none; fill-opacity:0; stroke-width: 2; stroke: #000000" x="-661.134" y="373.768" width="110.1" height="28"/>
    <text font-size="16" style="fill: #000000;text-anchor:middle;font-family:sans-serif;font-style:normal;font-weight:700" x="-606.084" y="393.768">USUARIO</text>
    <rect style="fill: #ffffff" x="-661.134" y="401.768" width="110.1" height="100"/>
    <rect style="fill: none; fill-opacity:0; stroke-width: 2; stroke: #000000" x="-661.134" y="401.768" width="110.1" height="100"/>
    <text font-size="12.8" style="fill: #000000;text-anchor:start;font-family:monospace;font-style:normal;font-weight:normal" x="-658.134" y="414.968">-Numero</text>
    <text font-size="12.8" style="fill: #000000;text-anchor:start;font-family:monospace;font-style:normal;font-weight:normal" x="-658.134" y="430.968">-Nombre</text>
    <text font-size="12.8" style="fill: #000000;text-anchor:start;font-family:monospace;font-style:normal;font-weight:normal" x="-658.134" y="446.968">-Fecha_Reg</text>
    <text font-size="12.8" style="fill: #000000;text-anchor:start;font-family:monospace;font-style:normal;font-weight:normal" x="-658.134" y="462.968">-Imagen</text>
    <text font-size="12.8" style="fill: #000000;text-anchor:start;font-family:monospace;font-style:normal;font-weight:normal" x="-658.134" y="478.968">-Descripción</text>
    <text font-size="12.8" style="fill: #000000;text-anchor:start;font-family:monospace;font-style:normal;font-weight:normal" x="-658.134" y="494.968">-Ult_Conexión</text>
    <rect style="fill: #ffffff" x="-661.134" y="501.768" width="110.1" height="8"/>
    <rect style="fill: none; fill-opacity:0; stroke-width: 2; stroke: #000000" x="-661.134" y="501.768" width="110.1" height="8"/>
  </g>
  <g>
    <rect style="fill: #ffffff" x="-256" y="412" width="140.9" height="28"/>
    <rect style="fill: none; fill-opacity:0; stroke-width: 2; stroke: #000000" x="-256" y="412" width="140.9" height="28"/>
    <text font-size="16" style="fill: #000000;text-anchor:middle;font-family:sans-serif;font-style:normal;font-weight:700" x="-185.55" y="432">MENSAJE</text>
    <rect style="fill: #ffffff" x="-256" y="440" width="140.9" height="36"/>
    <rect style="fill: none; fill-opacity:0; stroke-width: 2; stroke: #000000" x="-256" y="440" width="140.9" height="36"/>
    <text font-size="12.8" style="fill: #000000;text-anchor:start;font-family:monospace;font-style:normal;font-weight:normal" x="-253" y="453.2">-Codigo</text>
    <text font-size="12.8" style="fill: #000000;text-anchor:start;font-family:monospace;font-style:normal;font-weight:normal" x="-253" y="469.2">-Fecha_hora_envio</text>
    <rect style="fill: #ffffff" x="-256" y="476" width="140.9" height="8"/>
    <rect style="fill: none; fill-opacity:0; stroke-width: 2; stroke: #000000" x="-256" y="476" width="140.9" height="8"/>
  </g>
  <g>
    <rect style="fill: #ffffff" x="-19.4348" y="650.51" width="98.9" height="28"/>
    <rect style="fill: none; fill-opacity:0; stroke-width: 2; stroke: #000000" x="-19.4348" y="650.51" width="98.9" height="28"/>
    <text font-size="16" style="fill: #000000;text-anchor:middle;font-family:sans-serif;font-style:normal;font-weight:700" x="30.0152" y="670.51">CONTACTO</text>
    <rect style="fill: #ffffff" x="-19.4348" y="678.51" width="98.9" height="36"/>
    <rect style="fill: none; fill-opacity:0; stroke-width: 2; stroke: #000000" x="-19.4348" y="678.51" width="98.9" height="36"/>
    <text font-size="12.8" style="fill: #000000;text-anchor:start;font-family:monospace;font-style:normal;font-weight:normal" x="-16.4348" y="691.71">-Nombre</text>
    <text font-size="12.8" style="fill: #000000;text-anchor:start;font-family:monospace;font-style:normal;font-weight:normal" x="-16.4348" y="707.71">-Telefono</text>
    <rect style="fill: #ffffff" x="-19.4348" y="714.51" width="98.9" height="8"/>
    <rect style="fill: none; fill-opacity:0; stroke-width: 2; stroke: #000000" x="-19.4348" y="714.51" width="98.9" height="8"/>
  </g>
  <g>
    <rect style="fill: #ffffff" x="-240.07" y="650.216" width="117.75" height="28"/>
    <rect style="fill: none; fill-opacity:0; stroke-width: 2; stroke: #000000" x="-240.07" y="650.216" width="117.75" height="28"/>
    <text font-size="16" style="fill: #000000;text-anchor:middle;font-family:sans-serif;font-style:normal;font-weight:700" x="-181.195" y="670.216">MULTIMEDIA</text>
    <rect style="fill: #ffffff" x="-240.07" y="678.216" width="117.75" height="8"/>
    <rect style="fill: none; fill-opacity:0; stroke-width: 2; stroke: #000000" x="-240.07" y="678.216" width="117.75" height="8"/>
    <rect style="fill: #ffffff" x="-240.07" y="686.216" width="117.75" height="8"/>
    <rect style="fill: none; fill-opacity:0; stroke-width: 2; stroke: #000000" x="-240.07" y="686.216" width="117.75" height="8"/>
  </g>
  <g>
    <rect style="fill: #ffffff" x="-437.434" y="650.338" width="71.7" height="28"/>
    <rect style="fill: none; fill-opacity:0; stroke-width: 2; stroke: #000000" x="-437.434" y="650.338" width="71.7" height="28"/>
    <text font-size="16" style="fill: #000000;text-anchor:middle;font-family:sans-serif;font-style:normal;font-weight:700" x="-401.584" y="670.338">SIMPLE</text>
    <rect style="fill: #ffffff" x="-437.434" y="678.338" width="71.7" height="20"/>
    <rect style="fill: none; fill-opacity:0; stroke-width: 2; stroke: #000000" x="-437.434" y="678.338" width="71.7" height="20"/>
    <text font-size="12.8" style="fill: #000000;text-anchor:start;font-family:monospace;font-style:normal;font-weight:normal" x="-434.434" y="691.538">-Texto</text>
    <rect style="fill: #ffffff" x="-437.434" y="698.338" width="71.7" height="8"/>
    <rect style="fill: none; fill-opacity:0; stroke-width: 2; stroke: #000000" x="-437.434" y="698.338" width="71.7" height="8"/>
  </g>
  <g>
    <rect style="fill: #ffffff" x="-327.434" y="761.426" width="71.6" height="28"/>
    <rect style="fill: none; fill-opacity:0; stroke-width: 2; stroke: #000000" x="-327.434" y="761.426" width="71.6" height="28"/>
    <text font-size="16" style="fill: #000000;text-anchor:middle;font-family:sans-serif;font-style:normal;font-weight:700" x="-291.634" y="781.426">FOTO</text>
    <rect style="fill: #ffffff" x="-327.434" y="789.426" width="71.6" height="52"/>
    <rect style="fill: none; fill-opacity:0; stroke-width: 2; stroke: #000000" x="-327.434" y="789.426" width="71.6" height="52"/>
    <text font-size="12.8" style="fill: #000000;text-anchor:start;font-family:monospace;font-style:normal;font-weight:normal" x="-324.434" y="802.626">-Formato</text>
    <text font-size="12.8" style="fill: #000000;text-anchor:start;font-family:monospace;font-style:normal;font-weight:normal" x="-324.434" y="818.626">-Tamaño</text>
    <text font-size="12.8" style="fill: #000000;text-anchor:start;font-family:monospace;font-style:normal;font-weight:normal" x="-324.434" y="834.626">-Texto</text>
    <rect style="fill: #ffffff" x="-327.434" y="841.426" width="71.6" height="8"/>
    <rect style="fill: none; fill-opacity:0; stroke-width: 2; stroke: #000000" x="-327.434" y="841.426" width="71.6" height="8"/>
  </g>
  <g>
    <rect style="fill: #ffffff" x="-105.435" y="760.342" width="79.3" height="28"/>
    <rect style="fill: none; fill-opacity:0; stroke-width: 2; stroke: #000000" x="-105.435" y="760.342" width="79.3" height="28"/>
    <text font-size="16" style="fill: #000000;text-anchor:middle;font-family:sans-serif;font-style:normal;font-weight:700" x="-65.7848" y="780.342">VIDEO</text>
    <rect style="fill: #ffffff" x="-105.435" y="788.342" width="79.3" height="20"/>
    <rect style="fill: none; fill-opacity:0; stroke-width: 2; stroke: #000000" x="-105.435" y="788.342" width="79.3" height="20"/>
    <text font-size="12.8" style="fill: #000000;text-anchor:start;font-family:monospace;font-style:normal;font-weight:normal" x="-102.435" y="801.542">-Duración</text>
    <rect style="fill: #ffffff" x="-105.435" y="808.342" width="79.3" height="8"/>
    <rect style="fill: none; fill-opacity:0; stroke-width: 2; stroke: #000000" x="-105.435" y="808.342" width="79.3" height="8"/>
  </g>
  <line style="fill: none; fill-opacity:0; stroke-width: 2; stroke: #000000" x1="-551.2" y1="444" x2="-256" y2="444"/>
  <text font-size="14.1111" style="fill: #000000;text-anchor:start;font-family:sans-serif;font-style:normal;font-weight:normal" x="-407" y="440">
    <tspan x="-407" y="440">Crea</tspan>
  </text>
  <text font-size="16.9333" style="fill: #000000;text-anchor:start;font-family:sans-serif;font-style:normal;font-weight:normal" x="-549.2" y="459.432">
    <tspan x="-549.2" y="459.432">1</tspan>
  </text>
  <g>
    <rect style="fill: #ffffff" x="-482" y="102" width="164" height="28"/>
    <rect style="fill: none; fill-opacity:0; stroke-width: 2; stroke: #000000" x="-482" y="102" width="164" height="28"/>
    <text font-size="16" style="fill: #000000;text-anchor:middle;font-family:sans-serif;font-style:normal;font-weight:700" x="-400" y="122">GRUPO</text>
    <rect style="fill: #ffffff" x="-482" y="130" width="164" height="52"/>
    <rect style="fill: none; fill-opacity:0; stroke-width: 2; stroke: #000000" x="-482" y="130" width="164" height="52"/>
    <text font-size="12.8" style="fill: #000000;text-anchor:start;font-family:monospace;font-style:normal;font-weight:normal" x="-479" y="143.2">-Nombre</text>
    <text font-size="12.8" style="fill: #000000;text-anchor:start;font-family:monospace;font-style:normal;font-weight:normal" x="-479" y="159.2">-Imagen</text>
    <text font-size="12.8" style="fill: #000000;text-anchor:start;font-family:monospace;font-style:normal;font-weight:normal" x="-479" y="175.2">-Fecha_hora_creación</text>
    <rect style="fill: #ffffff" x="-482" y="182" width="164" height="8"/>
    <rect style="fill: none; fill-opacity:0; stroke-width: 2; stroke: #000000" x="-482" y="182" width="164" height="8"/>
  </g>
  <g>
    <rect style="fill: #ffffff" x="-986.19" y="445.404" width="187.1" height="28"/>
    <rect style="fill: none; fill-opacity:0; stroke-width: 2; stroke: #000000" x="-986.19" y="445.404" width="187.1" height="28"/>
    <text font-size="16" style="fill: #000000;text-anchor:middle;font-family:sans-serif;font-style:normal;font-weight:700" x="-892.64" y="465.404">ESTADO</text>
    <rect style="fill: #ffffff" x="-986.19" y="473.404" width="187.1" height="36"/>
    <rect style="fill: none; fill-opacity:0; stroke-width: 2; stroke: #000000" x="-986.19" y="473.404" width="187.1" height="36"/>
    <text font-size="12.8" style="fill: #000000;text-anchor:start;font-family:monospace;font-style:normal;font-weight:normal" x="-983.19" y="486.604">-Texto</text>
    <text font-size="12.8" style="fill: #000000;text-anchor:start;font-family:monospace;font-style:normal;font-weight:normal" x="-983.19" y="502.604">-Fecha_hora_publicación</text>
    <rect style="fill: #ffffff" x="-986.19" y="509.404" width="187.1" height="8"/>
    <rect style="fill: none; fill-opacity:0; stroke-width: 2; stroke: #000000" x="-986.19" y="509.404" width="187.1" height="8"/>
  </g>
  <text font-size="14.1111" style="fill: #000000;text-anchor:start;font-family:sans-serif;font-style:normal;font-weight:normal" x="-752.664" y="456.342">
    <tspan x="-752.664" y="456.342">Publica</tspan>
  </text>
  <g>
    <rect style="fill: #ffffff" x="-742.986" y="250" width="80.85" height="28"/>
    <rect style="fill: none; fill-opacity:0; stroke-width: 2; stroke: #000000" x="-742.986" y="250" width="80.85" height="28"/>
    <text font-size="16" style="fill: #000000;text-anchor:middle;font-family:sans-serif;font-style:normal;font-weight:700" x="-702.561" y="270">Miembro</text>
    <rect style="fill: #ffffff" x="-742.986" y="278" width="80.85" height="8"/>
    <rect style="fill: none; fill-opacity:0; stroke-width: 2; stroke: #000000" x="-742.986" y="278" width="80.85" height="8"/>
    <rect style="fill: #ffffff" x="-742.986" y="286" width="80.85" height="8"/>
    <rect style="fill: none; fill-opacity:0; stroke-width: 2; stroke: #000000" x="-742.986" y="286" width="80.85" height="8"/>
  </g>
  <g>
    <rect style="fill: #ffffff" x="-470.916" y="341.998" width="141.8" height="28"/>
    <rect style="fill: none; fill-opacity:0; stroke-width: 2; stroke: #000000" x="-470.916" y="341.998" width="141.8" height="28"/>
    <text font-size="16" style="fill: #000000;text-anchor:middle;font-family:sans-serif;font-style:normal;font-weight:700" x="-400.016" y="361.998">CONVERSACIÓN</text>
    <rect style="fill: #ffffff" x="-470.916" y="369.998" width="141.8" height="8"/>
    <rect style="fill: none; fill-opacity:0; stroke-width: 2; stroke: #000000" x="-470.916" y="369.998" width="141.8" height="8"/>
    <rect style="fill: #ffffff" x="-470.916" y="377.998" width="141.8" height="8"/>
    <rect style="fill: none; fill-opacity:0; stroke-width: 2; stroke: #000000" x="-470.916" y="377.998" width="141.8" height="8"/>
  </g>
  <g>
    <rect style="fill: #ffffff" x="-940.056" y="250" width="140.95" height="28"/>
    <rect style="fill: none; fill-opacity:0; stroke-width: 2; stroke: #000000" x="-940.056" y="250" width="140.95" height="28"/>
    <text font-size="16" style="fill: #000000;text-anchor:middle;font-family:sans-serif;font-style:normal;font-weight:700" x="-869.581" y="270">administradores</text>
    <rect style="fill: #ffffff" x="-940.056" y="278" width="140.95" height="8"/>
    <rect style="fill: none; fill-opacity:0; stroke-width: 2; stroke: #000000" x="-940.056" y="278" width="140.95" height="8"/>
    <rect style="fill: #ffffff" x="-940.056" y="286" width="140.95" height="8"/>
    <rect style="fill: none; fill-opacity:0; stroke-width: 2; stroke: #000000" x="-940.056" y="286" width="140.95" height="8"/>
  </g>
  <g>
    <line style="fill: none; fill-opacity:0; stroke-width: 2; stroke: #000000" x1="-755.222" y1="264" x2="-799.106" y2="264"/>
    <polygon style="fill: #ffffff" points="-755.222,269 -745.222,264 -755.222,259 "/>
    <polygon style="fill: none; fill-opacity:0; stroke-width: 2; stroke: #000000" points="-755.222,269 -745.222,264 -755.222,259 "/>
  </g>
  <text font-size="12.8" style="fill: #000000;text-anchor:start;font-family:sans-serif;font-style:normal;font-weight:normal" x="-702.56" y="272">
    <tspan x="-702.56" y="272"></tspan>
  </text>
  <line style="fill: none; fill-opacity:0; stroke-width: 2; stroke: #000000" x1="-551.034" y1="475.768" x2="-256" y2="475.8"/>
  <text font-size="14.1111" style="fill: #000000;text-anchor:start;font-family:sans-serif;font-style:normal;font-weight:normal" x="-420.4" y="472">
    <tspan x="-420.4" y="472">Recibe</tspan>
  </text>
  <text font-size="14.1111" style="fill: #000000;text-anchor:start;font-family:sans-serif;font-style:normal;font-weight:normal" x="-552.054" y="152.478">
    <tspan x="-552.054" y="152.478">Crea</tspan>
  </text>
  <line style="fill: none; fill-opacity:0; stroke-width: 2; stroke-dasharray: 4; stroke: #000000" x1="-606.57" y1="263.802" x2="-662.136" y2="264"/>
  <text font-size="14.1111" style="fill: #000000;text-anchor:start;font-family:sans-serif;font-style:normal;font-weight:normal" x="-752.74" y="480">
    <tspan x="-752.74" y="480">Recibe</tspan>
  </text>
  <polyline style="fill: none; fill-opacity:0; stroke-width: 2; stroke: #000000" points="-402.684,650.338 -402.684,621.962 30.0152,621.962 30.0152,650.51 "/>
  <g>
    <line style="fill: none; fill-opacity:0; stroke-width: 2; stroke: #000000" x1="-185.471" y1="650.216" x2="-185.544" y2="496.236"/>
    <polygon style="fill: none; fill-opacity:0; stroke-width: 2; stroke: #000000" points="-180.544,496.234 -185.549,486.236 -190.544,496.238 "/>
  </g>
  <polyline style="fill: none; fill-opacity:0; stroke-width: 2; stroke: #000000" points="-291.634,761.426 -291.634,739.342 -65.7848,739.342 -65.7848,760.342 "/>
  <g>
    <line style="fill: none; fill-opacity:0; stroke-width: 2; stroke: #000000" x1="-185.485" y1="739.07" x2="-185.475" y2="706.452"/>
    <polygon style="fill: none; fill-opacity:0; stroke-width: 2; stroke: #000000" points="-180.475,706.454 -185.471,696.452 -190.475,706.451 "/>
  </g>
  <polyline style="fill: none; fill-opacity:0; stroke-width: 2; stroke: #000000" points="-551.034,411.768 -523.804,411.768 -523.804,379.998 -470.916,379.998 "/>
  <polyline style="fill: none; fill-opacity:0; stroke-width: 2; stroke: #000000" points="-329.116,379.998 -292.558,379.998 -292.558,412 -256,412 "/>
  <text font-size="12.8" style="fill: #000000;text-anchor:start;font-family:sans-serif;font-style:normal;font-weight:normal" x="-310" y="377.14">
    <tspan x="-310" y="377.14">Guarda</tspan>
  </text>
  <text font-size="12.8" style="fill: #000000;text-anchor:start;font-family:sans-serif;font-style:normal;font-weight:normal" x="-521.306" y="376.572">
    <tspan x="-521.306" y="376.572">Tiene</tspan>
  </text>
  <text font-size="16.9333" style="fill: #000000;text-anchor:start;font-family:sans-serif;font-style:normal;font-weight:normal" x="-549.2" y="427.2">
    <tspan x="-549.2" y="427.2">2..*</tspan>
  </text>
  <polyline style="fill: none; fill-opacity:0; stroke-width: 2; stroke: #000000" points="-606.084,373.768 -606.084,116 -482,116 "/>
  <polyline style="fill: none; fill-opacity:0; stroke-width: 2; stroke: #000000" points="-550.1,373.768 -561.138,373.768 -561.138,156 -482,156 "/>
  <text font-size="14.1111" style="fill: #000000;text-anchor:start;font-family:sans-serif;font-style:normal;font-weight:normal" x="-596.208" y="111.896">
    <tspan x="-596.208" y="111.896">Integran</tspan>
  </text>
  <g>
    <line style="fill: none; fill-opacity:0; stroke-width: 2; stroke-dasharray: 4; stroke: #000000" x1="-594.068" y1="277.053" x2="-562.898" y2="277.126"/>
    <polygon style="fill: #000000" points="-601.568,277.035 -591.556,272.059 -594.068,277.053 -591.58,282.059 "/>
    <polygon style="fill: none; fill-opacity:0; stroke-width: 2; stroke: #000000" points="-601.568,277.035 -591.556,272.059 -594.068,277.053 -591.58,282.059 "/>
  </g>
  <g>
    <rect style="fill: #ffffff" x="-905.172" y="674.776" width="102.4" height="44"/>
    <rect style="fill: none; fill-opacity:0; stroke-width: 2; stroke: #000000" x="-905.172" y="674.776" width="102.4" height="44"/>
    <text font-size="12.8" style="fill: #000000;text-anchor:middle;font-family:monospace;font-style:normal;font-weight:normal" x="-853.972" y="689.976">&lt;&lt;DataType&gt;&gt;</text>
    <text font-size="16" style="fill: #000000;text-anchor:middle;font-family:sans-serif;font-style:normal;font-weight:700" x="-853.972" y="710.776">Fecha</text>
    <rect style="fill: #ffffff" x="-905.172" y="718.776" width="102.4" height="52"/>
    <rect style="fill: none; fill-opacity:0; stroke-width: 2; stroke: #000000" x="-905.172" y="718.776" width="102.4" height="52"/>
    <text font-size="12.8" style="fill: #000000;text-anchor:start;font-family:monospace;font-style:normal;font-weight:normal" x="-902.172" y="731.976">-Dia</text>
    <text font-size="12.8" style="fill: #000000;text-anchor:start;font-family:monospace;font-style:normal;font-weight:normal" x="-902.172" y="747.976">-Mes</text>
    <text font-size="12.8" style="fill: #000000;text-anchor:start;font-family:monospace;font-style:normal;font-weight:normal" x="-902.172" y="763.976">-Año</text>
    <rect style="fill: #ffffff" x="-905.172" y="770.776" width="102.4" height="8"/>
    <rect style="fill: none; fill-opacity:0; stroke-width: 2; stroke: #000000" x="-905.172" y="770.776" width="102.4" height="8"/>
  </g>
  <text font-size="8.46667" style="fill: #000000;text-anchor:start;font-family:sans-serif;font-style:normal;font-weight:normal" x="-598.21" y="266.784">
    <tspan x="-598.21" y="266.784">{subset}</tspan>
  </text>
  <line style="fill: none; fill-opacity:0; stroke-width: 2; stroke: #000000" x1="-661.4" y1="458" x2="-799.6" y2="458"/>
  <g>
    <line style="fill: none; fill-opacity:0; stroke-width: 2; stroke: #000000" x1="-400" y1="190" x2="-400.015" y2="329.762"/>
    <polygon style="fill: #ffffff" points="-405.015,329.761 -400.016,339.762 -395.015,329.762 "/>
    <polygon style="fill: none; fill-opacity:0; stroke-width: 2; stroke: #000000" points="-405.015,329.761 -400.016,339.762 -395.015,329.762 "/>
  </g>
  <line style="fill: none; fill-opacity:0; stroke-width: 2; stroke: #000000" x1="-661.8" y1="482" x2="-800.2" y2="482"/>
  <g>
    <rect style="fill: #ffffff" x="-264" y="145.941" width="64.65" height="28"/>
    <rect style="fill: none; fill-opacity:0; stroke-width: 2; stroke: #000000" x="-264" y="145.941" width="64.65" height="28"/>
    <text font-size="16" style="fill: #000000;text-anchor:middle;font-family:sans-serif;font-style:normal;font-weight:700" x="-231.675" y="165.941">Simple</text>
    <rect style="fill: #ffffff" x="-264" y="173.941" width="64.65" height="8"/>
    <rect style="fill: none; fill-opacity:0; stroke-width: 2; stroke: #000000" x="-264" y="173.941" width="64.65" height="8"/>
    <rect style="fill: #ffffff" x="-264" y="181.941" width="64.65" height="8"/>
    <rect style="fill: none; fill-opacity:0; stroke-width: 2; stroke: #000000" x="-264" y="181.941" width="64.65" height="8"/>
  </g>
  <g>
    <rect style="fill: #ffffff" x="-540.1" y="259" width="90.25" height="28"/>
    <rect style="fill: none; fill-opacity:0; stroke-width: 2; stroke: #000000" x="-540.1" y="259" width="90.25" height="28"/>
    <text font-size="16" style="fill: #000000;text-anchor:middle;font-family:sans-serif;font-style:normal;font-weight:700" x="-494.975" y="279">Archivado</text>
    <rect style="fill: #ffffff" x="-540.1" y="287" width="90.25" height="20"/>
    <rect style="fill: none; fill-opacity:0; stroke-width: 2; stroke: #000000" x="-540.1" y="287" width="90.25" height="20"/>
    <text font-size="12.8" style="fill: #000000;text-anchor:start;font-family:monospace;font-style:normal;font-weight:normal" x="-537.1" y="300.2">-si/no</text>
    <rect style="fill: #ffffff" x="-540.1" y="307" width="90.25" height="8"/>
    <rect style="fill: none; fill-opacity:0; stroke-width: 2; stroke: #000000" x="-540.1" y="307" width="90.25" height="8"/>
  </g>
  <g>
    <rect style="fill: #ffffff" x="-431.718" y="539" width="56.2" height="28"/>
    <rect style="fill: none; fill-opacity:0; stroke-width: 2; stroke: #000000" x="-431.718" y="539" width="56.2" height="28"/>
    <text font-size="16" style="fill: #000000;text-anchor:middle;font-family:sans-serif;font-style:normal;font-weight:700" x="-403.618" y="559">Visto</text>
    <rect style="fill: #ffffff" x="-431.718" y="567" width="56.2" height="20"/>
    <rect style="fill: none; fill-opacity:0; stroke-width: 2; stroke: #000000" x="-431.718" y="567" width="56.2" height="20"/>
    <text font-size="12.8" style="fill: #000000;text-anchor:start;font-family:monospace;font-style:normal;font-weight:normal" x="-428.718" y="580.2">-si/no</text>
    <rect style="fill: #ffffff" x="-431.718" y="587" width="56.2" height="8"/>
    <rect style="fill: none; fill-opacity:0; stroke-width: 2; stroke: #000000" x="-431.718" y="587" width="56.2" height="8"/>
  </g>
  <text font-size="16.9333" style="fill: #000000;text-anchor:start;font-family:sans-serif;font-style:normal;font-weight:normal" x="-549.2" y="491.2">
    <tspan x="-549.2" y="491.2">1...*</tspan>
  </text>
  <text font-size="16.9333" style="fill: #000000;text-anchor:start;font-family:sans-serif;font-style:normal;font-weight:normal" x="-267.6" y="427.242">
    <tspan x="-267.6" y="427.242">*</tspan>
  </text>
  <text font-size="16.9333" style="fill: #000000;text-anchor:start;font-family:sans-serif;font-style:normal;font-weight:normal" x="-267.6" y="459.406">
    <tspan x="-267.6" y="459.406">*</tspan>
  </text>
  <text font-size="16.9333" style="fill: #000000;text-anchor:start;font-family:sans-serif;font-style:normal;font-weight:normal" x="-267.6" y="491.172">
    <tspan x="-267.6" y="491.172">*</tspan>
  </text>
  <text font-size="16.9333" style="fill: #000000;text-anchor:start;font-family:sans-serif;font-style:normal;font-weight:normal" x="-493.276" y="171.39">
    <tspan x="-493.276" y="171.39">*</tspan>
  </text>
  <text font-size="16.9333" style="fill: #000000;text-anchor:start;font-family:sans-serif;font-style:normal;font-weight:normal" x="-493.276" y="131.436">
    <tspan x="-493.276" y="131.436">*</tspan>
  </text>
  <text font-size="16.9333" style="fill: #000000;text-anchor:start;font-family:sans-serif;font-style:normal;font-weight:normal" x="-560.168" y="371.032">
    <tspan x="-560.168" y="371.032">1</tspan>
  </text>
  <text font-size="16.9333" style="fill: #000000;text-anchor:start;font-family:sans-serif;font-style:normal;font-weight:normal" x="-604.208" y="371.014">
    <tspan x="-604.208" y="371.014">1..*</tspan>
  </text>
  <text font-size="16.9333" style="fill: #000000;text-anchor:start;font-family:sans-serif;font-style:normal;font-weight:normal" x="-797.126" y="497.44">
    <tspan x="-797.126" y="497.44">*</tspan>
  </text>
  <text font-size="16.9333" style="fill: #000000;text-anchor:start;font-family:sans-serif;font-style:normal;font-weight:normal" x="-672.466" y="497.444">
    <tspan x="-672.466" y="497.444">*</tspan>
  </text>
  <text font-size="16.9333" style="fill: #000000;text-anchor:start;font-family:sans-serif;font-style:normal;font-weight:normal" x="-672.466" y="473.406">
    <tspan x="-672.466" y="473.406">1</tspan>
  </text>
  <text font-size="16.9333" style="fill: #000000;text-anchor:start;font-family:sans-serif;font-style:normal;font-weight:normal" x="-797.122" y="473.426">
    <tspan x="-797.122" y="473.426">*</tspan>
  </text>
  <polyline style="fill: none; fill-opacity:0; stroke-width: 2; stroke: #000000" points="-231.675,189.941 -231.675,265.999 -400.008,265.999 "/>
  <g>
    <polygon style="fill: #000000" points="-540,104 -534,108 -540,112 "/>
    <polygon style="fill: none; fill-opacity:0; stroke-width: 2; stroke: #000000" points="-540,104 -534,108 -540,112 "/>
  </g>
  <g>
    <polygon style="fill: #000000" points="-520.34,144.226 -514.34,148.226 -520.34,152.226 "/>
    <polygon style="fill: none; fill-opacity:0; stroke-width: 2; stroke: #000000" points="-520.34,144.226 -514.34,148.226 -520.34,152.226 "/>
  </g>
  <g>
    <polygon style="fill: #000000" points="-755.01,446.12 -761.01,450.12 -755.01,454.12 "/>
    <polygon style="fill: none; fill-opacity:0; stroke-width: 2; stroke: #000000" points="-755.01,446.12 -761.01,450.12 -755.01,454.12 "/>
  </g>
  <g>
    <polygon style="fill: #000000" points="-755,470.12 -761,474.12 -755,478.12 "/>
    <polygon style="fill: none; fill-opacity:0; stroke-width: 2; stroke: #000000" points="-755,470.12 -761,474.12 -755,478.12 "/>
  </g>
  <g>
    <polygon style="fill: #000000" points="-487.306,368.09 -481.306,372.09 -487.306,376.09 "/>
    <polygon style="fill: none; fill-opacity:0; stroke-width: 2; stroke: #000000" points="-487.306,368.09 -481.306,372.09 -487.306,376.09 "/>
  </g>
  <g>
    <polygon style="fill: #000000" points="-376.574,431.406 -370.574,435.406 -376.574,439.406 "/>
    <polygon style="fill: none; fill-opacity:0; stroke-width: 2; stroke: #000000" points="-376.574,431.406 -370.574,435.406 -376.574,439.406 "/>
  </g>
  <g>
    <polygon style="fill: #000000" points="-376.596,463.934 -370.596,467.934 -376.596,471.934 "/>
    <polygon style="fill: none; fill-opacity:0; stroke-width: 2; stroke: #000000" points="-376.596,463.934 -370.596,467.934 -376.596,471.934 "/>
  </g>
  <g>
    <polygon style="fill: #000000" points="-312,368.12 -318,372.12 -312,376.12 "/>
    <polygon style="fill: none; fill-opacity:0; stroke-width: 2; stroke: #000000" points="-312,368.12 -318,372.12 -312,376.12 "/>
  </g>
  <line style="fill: none; fill-opacity:0; stroke-width: 2; stroke-dasharray: 4; stroke: #000000" x1="-403.518" y1="475.784" x2="-403.618" y2="539"/>
  <line style="fill: none; fill-opacity:0; stroke-width: 2; stroke-dasharray: 4; stroke: #000000" x1="-523.792" y1="380" x2="-523.792" y2="316"/>
  <polyline style="fill: none; fill-opacity:0; stroke-width: 2; stroke: #000000" points="-661.134,387.768 -700,387.768 -700,336 -644,336 -644,374 "/>
  <text font-size="14.1111" style="fill: #000000;text-anchor:start;font-family:sans-serif;font-style:normal;font-weight:normal" x="-699.81" y="333.426">
    <tspan x="-699.81" y="333.426">Contacto</tspan>
  </text>
  <text font-size="16.9333" style="fill: #000000;text-anchor:start;font-family:sans-serif;font-style:normal;font-weight:normal" x="-672.366" y="403.2">
    <tspan x="-672.366" y="403.2">*</tspan>
  </text>
  <text font-size="16.9333" style="fill: #000000;text-anchor:start;font-family:sans-serif;font-style:normal;font-weight:normal" x="-642.074" y="370.96">
    <tspan x="-642.074" y="370.96">*</tspan>
  </text>
  <text font-size="8.46667" style="fill: #000000;text-anchor:start;font-family:sans-serif;font-style:normal;font-weight:normal" x="-484" y="464">
    <tspan x="-484" y="464">{xor}</tspan>
  </text>
  <line style="fill: none; fill-opacity:0; stroke-width: 2; stroke-dasharray: 4; stroke: #000000" x1="-460" y1="444" x2="-460" y2="476"/>
  <text font-size="16.9333" style="fill: #000000;text-anchor:start;font-family:sans-serif;font-style:normal;font-weight:normal" x="-481.912" y="395.44">
    <tspan x="-481.912" y="395.44">*</tspan>
  </text>
  <text font-size="16.9333" style="fill: #000000;text-anchor:start;font-family:sans-serif;font-style:normal;font-weight:normal" x="-327.2" y="395.364">
    <tspan x="-327.2" y="395.364">*</tspan>
  </text>
</svg>
